<svg width="25" height="22" viewBox="0 0 25 22" fill="none" xmlns="http://www.w3.org/2000/svg">
<path d="M11.1598 20.9994L0.0979156 5.51308C-0.148424 5.16455 0.0979176 4.68823 0.526081 4.68823L2.64343 4.68823C3.59361 4.68823 4.49099 5.14713 5.03646 5.91389L11.6877 15.2254C12.0865 15.7831 12.9194 15.7831 13.3182 15.2254L19.9635 5.91389C20.5149 5.14713 21.4064 4.68823 22.3566 4.68823L24.4739 4.68823C24.9021 4.68823 25.1484 5.16456 24.9021 5.51309L13.8402 21.0052C13.1892 21.9172 11.8167 21.9172 11.1598 20.9994Z" fill="url(#paint0_linear_582_755)"/>
<path fill-rule="evenodd" clip-rule="evenodd" d="M8.82197 4.70779L11.9816 0.265511C12.236 -0.0885038 12.7703 -0.0885038 13.0183 0.265511L16.1859 4.71021C16.3287 4.83405 16.4122 5.01881 16.4085 5.20899C16.4122 5.39917 16.3287 5.58393 16.1859 5.70777L13.0183 10.1525C12.7703 10.5065 12.236 10.5065 11.9816 10.1525L8.82197 5.7102C8.67649 5.58635 8.59091 5.40042 8.59512 5.20899C8.59091 5.01757 8.67649 4.83163 8.82197 4.70779Z" fill="url(#paint1_linear_582_755)"/>
<defs>
<linearGradient id="paint0_linear_582_755" x1="16.25" y1="5.11324" x2="16.25" y2="21.2635" gradientUnits="userSpaceOnUse">
<stop stop-color="#E50913"/>
<stop offset="1" stop-color="#E60B74"/>
</linearGradient>
<linearGradient id="paint1_linear_582_755" x1="8.79031" y1="3.6463" x2="16.2132" y2="3.64629" gradientUnits="userSpaceOnUse">
<stop stop-color="#E50913"/>
<stop offset="1" stop-color="#E60B74"/>
</linearGradient>
</defs>
</svg>
