<svg width="18" height="21" viewBox="0 0 18 21" fill="none" xmlns="http://www.w3.org/2000/svg">
<path fill-rule="evenodd" clip-rule="evenodd" d="M6.25069 3.75078C6.97151 3.02996 7.94916 2.625 8.96856 2.625C9.98797 2.625 10.9656 3.02996 11.6864 3.75078C12.4073 4.47161 12.8122 5.44926 12.8122 6.46866V10.3436C12.8122 10.3436 12.8122 10.3436 12.8122 10.3436H5.12491C5.12491 10.3436 5.12491 10.3436 5.12491 10.3436V6.46866C5.12491 5.44926 5.52986 4.47161 6.25069 3.75078ZM3.12491 10.3436C3.12491 10.3436 3.12491 10.3436 3.12491 10.3436V6.46866C3.12491 4.91882 3.74058 3.43247 4.83647 2.33657C5.93237 1.24067 7.41873 0.625 8.96856 0.625C10.5184 0.625 12.0048 1.24067 13.1007 2.33657C14.1966 3.43247 14.8122 4.91882 14.8122 6.46866V10.3436C14.8122 10.3436 14.8122 10.3436 14.8122 10.3436H15.7497C16.8197 10.3436 17.6872 11.2111 17.6872 12.2811V19.0622C17.6872 20.1322 16.8197 20.9997 15.7497 20.9997H2.18746C1.11743 20.9997 0.25 20.1322 0.25 19.0622V12.2811C0.25 11.2111 1.11743 10.3436 2.18746 10.3436H3.12491Z" fill="#767698"/>
</svg>
