<svg width="23" height="23" viewBox="0 0 23 23" fill="none" xmlns="http://www.w3.org/2000/svg">
<path fill-rule="evenodd" clip-rule="evenodd" d="M18.4797 2.85092L3.03331 8.25714L9.71981 11.2289L18.4797 2.85092ZM10.971 12.1079L14.2405 19.4643L19.756 3.70584L10.971 12.1079ZM22.1858 1.30419L15.0313 21.7454C14.9298 22.0356 14.6613 22.2345 14.354 22.247C14.0468 22.2595 13.763 22.0832 13.6381 21.8022L9.65573 12.8419L0.6954 8.85954C0.414389 8.73465 0.238092 8.45087 0.250627 8.14361C0.263163 7.83635 0.461991 7.56788 0.752241 7.46629L21.2499 0.292127C21.3353 0.262212 21.4238 0.248517 21.5113 0.250127C21.705 0.253055 21.8975 0.330579 22.042 0.481657C22.2585 0.707984 22.3052 1.03458 22.1858 1.30419Z" fill="#EBEBEB"/>
</svg>
