<svg width="32" height="32" viewBox="0 0 32 32" fill="none" xmlns="http://www.w3.org/2000/svg">
<path fill-rule="evenodd" clip-rule="evenodd" d="M6.5 2H7.25H25.25H26V2.75C26 4.00265 25.9684 5.45387 25.8699 7H29.75H30.5V7.75C30.5 10.4001 29.5804 13.533 28.0791 16.0134C26.717 18.2638 24.7491 20.1708 22.3779 20.4616C21.0909 22.4341 19.3357 23.9172 16.9427 24.397C16.9418 24.4465 16.9408 24.4951 16.9398 24.5428L16.9398 24.5428C16.9278 25.1298 16.9187 25.5734 17 26L17.0231 26.1225C17.1205 26.6433 17.2042 27.0907 17.55 27.35C17.9481 27.6486 18.5968 27.8836 19.6938 28.036C20.7833 28.1873 22.255 28.25 24.25 28.25C24.5261 28.25 24.75 28.4739 24.75 28.75V29.75C24.75 30.0261 24.5261 30.25 24.25 30.25H8.25C7.97386 30.25 7.75 30.0261 7.75 29.75V28.75C7.75 28.4739 7.97386 28.25 8.25 28.25C10.245 28.25 11.7167 28.1873 12.8062 28.036C13.9032 27.8836 14.5519 27.6486 14.95 27.35C15.2958 27.0907 15.3795 26.6433 15.4769 26.1225L15.5 26C15.5715 25.6245 15.5525 25.2247 15.5289 24.7279V24.7279C15.5238 24.6195 15.5184 24.5065 15.5137 24.3881C13.143 23.8991 11.4012 22.4221 10.1221 20.4616C7.75092 20.1708 5.78301 18.2638 4.42088 16.0134C2.91962 13.533 2 10.4001 2 7.75V7H2.75H6.63008C6.53161 5.45387 6.5 4.00265 6.5 2.75V2ZM24.4695 15.7116C25.1496 13.3993 25.539 10.8807 25.7546 8.5H28.9733C28.8211 10.6908 28.0265 13.2034 26.7959 15.2366C25.8191 16.8504 24.6416 18.05 23.3887 18.6237C23.8178 17.6997 24.174 16.7165 24.4695 15.7116ZM8.03048 15.7116C8.32604 16.7165 8.68222 17.6997 9.11135 18.6237C7.85841 18.05 6.68087 16.8504 5.70413 15.2366C4.47349 13.2034 3.67891 10.6908 3.52671 8.5H6.7454C6.96102 10.8807 7.35037 13.3993 8.03048 15.7116ZM8.00392 3.5C8.03975 6.91358 8.3357 11.4334 9.46952 15.2884C10.6904 19.4395 12.7797 22.5104 16.25 22.9935C19.7203 22.5104 21.8096 19.4395 23.0305 15.2884C24.1643 11.4334 24.4603 6.91358 24.4961 3.5H8.00392Z" fill="url(#paint0_linear_122_161)"/>
<defs>
<linearGradient id="paint0_linear_122_161" x1="2.7125" y1="11.8875" x2="29.7875" y2="11.8875" gradientUnits="userSpaceOnUse">
<stop stop-color="#E50913"/>
<stop offset="1" stop-color="#E60B74"/>
</linearGradient>
</defs>
</svg>
