<svg width="32" height="32" viewBox="0 0 32 32" fill="none" xmlns="http://www.w3.org/2000/svg">
<path fill-rule="evenodd" clip-rule="evenodd" d="M21.2803 3.02665C20.8807 2.91747 20.4683 3.15286 20.3591 3.55242C20.2499 3.95199 20.4853 4.36441 20.8849 4.4736C21.8771 4.74474 22.7664 5.36336 23.4066 6.24359C24.0473 7.12456 24.3991 8.21446 24.3991 9.34159C24.3991 10.4687 24.0473 11.5586 23.4066 12.4396C22.7664 13.3198 21.8771 13.9384 20.8849 14.2096C20.4853 14.3188 20.2499 14.7312 20.3591 15.1308C20.4683 15.5303 20.8807 15.7657 21.2803 15.6565C22.6146 15.2919 23.7873 14.4664 24.6197 13.3218C25.4516 12.178 25.8991 10.7776 25.8991 9.34159C25.8991 7.90553 25.4516 6.50515 24.6197 5.36133C23.7873 4.21678 22.6146 3.39128 21.2803 3.02665ZM7.59975 9.34159C7.59975 6.66772 9.76735 4.50013 12.4412 4.50013C15.1151 4.50013 17.2827 6.66772 17.2827 9.34159C17.2827 12.0155 15.1151 14.1831 12.4412 14.1831C9.76735 14.1831 7.59975 12.0155 7.59975 9.34159ZM12.4412 3.00013C8.93892 3.00013 6.09975 5.8393 6.09975 9.34159C6.09975 12.8439 8.93892 15.6831 12.4412 15.6831C15.9435 15.6831 18.7827 12.8439 18.7827 9.34159C18.7827 5.8393 15.9435 3.00013 12.4412 3.00013ZM6.34146 19.2661C4.66692 19.2661 3.05649 19.911 1.86559 21.0658C0.673905 22.2214 0 23.7937 0 25.4382V28.1492C0 28.5634 0.335786 28.8992 0.75 28.8992C1.16421 28.8992 1.5 28.5634 1.5 28.1492V25.4382C1.5 24.2066 2.00429 23.0207 2.90981 22.1426C3.81611 21.2638 5.05011 20.7661 6.34146 20.7661H17.5244C18.8157 20.7661 20.0497 21.2638 20.956 22.1426C21.8616 23.0207 22.3658 24.2066 22.3658 25.4382V28.1492C22.3658 28.5634 22.7016 28.8992 23.1158 28.8992C23.5301 28.8992 23.8658 28.5634 23.8658 28.1492V25.4382C23.8658 23.7937 23.1919 22.2214 22.0003 21.0658C20.8094 19.911 19.1989 19.2661 17.5244 19.2661H6.34146ZM26.4572 19.8248C26.5629 19.4243 26.9733 19.1853 27.3738 19.291C28.7011 19.6413 29.8738 20.4314 30.7097 21.5336C31.5454 22.6355 31.9979 23.9876 31.9989 25.3776L31.9989 25.3781V28.1492C31.9989 28.5634 31.6631 28.8992 31.2489 28.8992C30.8347 28.8992 30.4989 28.5634 30.4989 28.1492V25.3787C30.4981 24.3127 30.1509 23.2791 29.5145 22.44C28.8784 21.6012 27.9901 21.005 26.991 20.7413C26.5905 20.6356 26.3515 20.2253 26.4572 19.8248Z" fill="url(#paint0_linear_122_151)"/>
<defs>
<linearGradient id="paint0_linear_122_151" x1="0.799973" y1="12.0647" x2="31.1989" y2="12.0647" gradientUnits="userSpaceOnUse">
<stop stop-color="#E50913"/>
<stop offset="1" stop-color="#E60B74"/>
</linearGradient>
</defs>
</svg>
