<svg width="20" height="20" viewBox="0 0 20 20" fill="none" xmlns="http://www.w3.org/2000/svg">
<path fill-rule="evenodd" clip-rule="evenodd" d="M4.61538 3H11.8846C12.7768 3 13.5 3.72323 13.5 4.61538V4.75H6.36538C5.47323 4.75 4.75 5.47323 4.75 6.36538V13.5H4.61538C3.72323 13.5 3 12.7768 3 11.8846V4.61538C3 3.72323 3.72323 3 4.61538 3Z" fill="#767698"/>
<path d="M15.4615 7H8.53846C7.68879 7 7 7.68879 7 8.53846V15.4615C7 16.3112 7.68879 17 8.53846 17H15.4615C16.3112 17 17 16.3112 17 15.4615V8.53846C17 7.68879 16.3112 7 15.4615 7Z" fill="#767698"/>
</svg>
