<svg width="15" height="15" viewBox="0 0 15 15" fill="none" xmlns="http://www.w3.org/2000/svg">
<path fill-rule="evenodd" clip-rule="evenodd" d="M12.9978 0C12.5994 0 12.2173 0.158268 11.9356 0.439987L5.20815 7.1674L4.5 10L7.3326 9.29185L14.06 2.56443C14.3417 2.28272 14.5 1.90062 14.5 1.50221C14.5 1.1038 14.3417 0.721707 14.06 0.439987C13.7783 0.158268 13.3962 0 12.9978 0ZM1.83333 1.5C1.3471 1.5 0.880788 1.69315 0.536971 2.03697C0.193154 2.38079 0 2.8471 0 3.33333V12.6667C0 13.1529 0.193154 13.6192 0.536971 13.963C0.880787 14.3068 1.3471 14.5 1.83333 14.5H11.1667C11.6529 14.5 12.1192 14.3068 12.463 13.963C12.8068 13.6192 13 13.1529 13 12.6667V8C13 7.72386 12.7761 7.5 12.5 7.5C12.2239 7.5 12 7.72386 12 8V12.6667C12 12.8877 11.9122 13.0996 11.7559 13.2559C11.5996 13.4122 11.3877 13.5 11.1667 13.5H1.83333C1.61232 13.5 1.40036 13.4122 1.24408 13.2559C1.0878 13.0996 1 12.8877 1 12.6667V3.33333C1 3.11232 1.0878 2.90036 1.24408 2.74408C1.40036 2.5878 1.61232 2.5 1.83333 2.5H6.5C6.77614 2.5 7 2.27614 7 2C7 1.72386 6.77614 1.5 6.5 1.5H1.83333Z" fill="url(#paint0_linear_914_717)"/>
<defs>
<linearGradient id="paint0_linear_914_717" x1="0.3625" y1="5.075" x2="14.1375" y2="5.075" gradientUnits="userSpaceOnUse">
<stop stop-color="#E50913"/>
<stop offset="1" stop-color="#E60B74"/>
</linearGradient>
</defs>
</svg>
