<svg width="16" height="16" viewBox="0 0 16 16" fill="none" xmlns="http://www.w3.org/2000/svg">
<path fill-rule="evenodd" clip-rule="evenodd" d="M2.66667 1.75C2.40749 1.75 2.16846 1.84657 1.99989 2.0039C1.83308 2.1596 1.75 2.35926 1.75 2.55556V13.4444C1.75 13.6407 1.83307 13.8404 1.99989 13.9961C2.16846 14.1534 2.4075 14.25 2.66667 14.25H6C6.41421 14.25 6.75 14.5858 6.75 15C6.75 15.4142 6.41421 15.75 6 15.75H2.66667C2.04178 15.75 1.43297 15.5188 0.976417 15.0927C0.518114 14.6649 0.25 14.0733 0.25 13.4444V2.55556C0.25 1.92673 0.518114 1.33507 0.976417 0.90732C1.43297 0.481204 2.04178 0.25 2.66667 0.25H6C6.41421 0.25 6.75 0.585786 6.75 1C6.75 1.41421 6.41421 1.75 6 1.75H2.66667ZM10.4697 3.46967C10.7626 3.17678 11.2374 3.17678 11.5303 3.46967L15.5303 7.46967C15.6768 7.61612 15.75 7.80806 15.75 8C15.75 8.10169 15.7298 8.19866 15.6931 8.28709C15.6565 8.37555 15.6022 8.45842 15.5303 8.53033L11.5303 12.5303C11.2374 12.8232 10.7626 12.8232 10.4697 12.5303C10.1768 12.2374 10.1768 11.7626 10.4697 11.4697L13.1893 8.75H6C5.58579 8.75 5.25 8.41421 5.25 8C5.25 7.58579 5.58579 7.25 6 7.25H13.1893L10.4697 4.53033C10.1768 4.23744 10.1768 3.76256 10.4697 3.46967Z" fill="url(#paint0_linear_681_1815)"/>
<defs>
<linearGradient id="paint0_linear_681_1815" x1="0.6375" y1="5.675" x2="15.3625" y2="5.675" gradientUnits="userSpaceOnUse">
<stop stop-color="#E50913"/>
<stop offset="1" stop-color="#E60B74"/>
</linearGradient>
</defs>
</svg>
