<svg width="12" height="12" viewBox="0 0 12 12" fill="none" xmlns="http://www.w3.org/2000/svg">
<path fill-rule="evenodd" clip-rule="evenodd" d="M9.3 1.67857C10.8188 1.67857 11.5 2.1964 11.5 3.64286V8.88095C11.5 10.3274 10.2688 11.5 8.75 11.5H3.25C1.73122 11.5 0.5 10.3274 0.5 8.88095V3.64286C0.5 2.1964 1.18122 1.67857 2.7 1.67857H2.85714L3.64286 0.5H8.35714L9.14286 1.67857H9.3ZM4.96372 4.00285C5.38379 3.78488 5.8619 3.70492 6.33004 3.77434C6.80756 3.84515 7.24964 4.06766 7.59099 4.40901C7.93234 4.75036 8.15485 5.19244 8.22566 5.66996C8.29508 6.1381 8.21512 6.61621 7.99715 7.03628C7.77918 7.45636 7.43431 7.797 7.01158 8.00978C6.58885 8.22255 6.10979 8.29661 5.64254 8.22142C5.1753 8.14623 4.74366 7.92563 4.40901 7.59099C4.07437 7.25634 3.85377 6.8247 3.77858 6.35746C3.70339 5.89021 3.77745 5.41115 3.99022 4.98842C4.203 4.56569 4.54364 4.22082 4.96372 4.00285ZM6.47672 2.78516C5.80052 2.68488 5.10992 2.80038 4.50315 3.11523C3.89637 3.43007 3.40433 3.92822 3.09699 4.53883C2.78965 5.14944 2.68268 5.84141 2.79128 6.51633C2.89988 7.19124 3.21853 7.81472 3.70191 8.29809C4.18528 8.78147 4.80876 9.10012 5.48367 9.20872C6.15859 9.31732 6.85056 9.21035 7.46117 8.90301C8.07178 8.59567 8.56993 8.10363 8.88477 7.49685C9.19962 6.89008 9.31511 6.19948 9.21484 5.52328C9.11256 4.83353 8.79115 4.19496 8.2981 3.7019C7.80504 3.20885 7.16647 2.88744 6.47672 2.78516Z" fill="#EBEBEB"/>
</svg>
