<svg width="15" height="32" viewBox="0 0 15 32" fill="none" xmlns="http://www.w3.org/2000/svg">
<path fill-rule="evenodd" clip-rule="evenodd" d="M7.25773 0.412297C7.14777 0.358662 6.92783 0.358662 6.81787 0.412297C6.48797 0.626837 0.769759 5.02492 2.85911 17.4683L0.0549828 21.92C0 22.0272 0 22.0809 0 22.1345V29.5362C0 29.6971 0.0549828 29.8043 0.219931 29.858C0.329897 29.9116 0.494845 29.9116 0.604811 29.858L5.82818 26.6399H8.24742L13.4708 29.858C13.5808 29.9116 13.7457 29.9652 13.8557 29.858C13.8832 29.858 13.8969 29.8446 13.9107 29.8312C13.9244 29.8177 13.9381 29.8043 13.9656 29.8043C14.0206 29.7507 14.0756 29.6434 14.0756 29.5362V22.1345C14.0756 22.0809 14.0756 21.9736 14.0206 21.92L11.2165 17.4683C13.3058 5.02492 7.58763 0.626837 7.25773 0.412297ZM7.0378 1.27046C7.64261 1.80681 9.18213 3.52313 10.0619 6.74124H3.95876C4.89347 3.52313 6.43299 1.80681 7.0378 1.27046ZM0.824742 22.2418L3.13402 18.5946C3.57388 20.8473 4.28866 23.3145 5.27835 26.0499L0.824742 28.7853V22.2418ZM13.2509 22.2418V28.7853L8.79725 26.0499C9.78694 23.3145 10.5017 20.8473 10.9416 18.5946L13.2509 22.2418ZM8.08247 25.8353H5.99313C2.85911 17.3074 2.85911 11.4075 3.79381 7.54577H10.2818C11.2165 11.4611 11.1615 17.361 8.08247 25.8353ZM5.93809 28.0343C5.77314 28.0343 5.66317 28.0879 5.60819 28.2488L4.06867 31.0379C4.01369 31.1451 4.01369 31.306 4.06867 31.4133C4.12365 31.5206 4.2886 31.6279 4.39857 31.6279H9.62194C9.7319 31.6279 9.84187 31.5742 9.89685 31.5206L9.95183 31.4669C10.0068 31.3597 10.0068 31.1988 9.95183 31.0915L8.4673 28.2488C8.41231 28.1416 8.24737 28.0343 8.1374 28.0343H5.93809ZM8.96214 30.8233H5.05836L6.15802 28.8388H7.86249L8.96214 30.8233ZM7.03781 14.1964C5.99314 14.1964 5.16839 13.3919 5.16839 12.3728C5.16839 11.3538 5.99314 10.5492 7.03781 10.5492C8.08248 10.5492 8.90722 11.3538 8.90722 12.3728C8.90722 12.8556 8.68729 13.3383 8.3574 13.6601C8.0275 13.9819 7.53265 14.1964 7.03781 14.1964ZM6.98283 13.4455C7.58764 13.4455 8.08248 12.9628 8.08248 12.3728C8.08248 11.7829 7.64262 11.3001 6.98283 11.3001C6.65293 11.3001 6.433 11.4074 6.21307 11.6219C5.99314 11.8365 5.88317 12.1047 5.88317 12.3728C5.88317 12.9628 6.37802 13.4455 6.98283 13.4455Z" fill="url(#paint0_linear_905_429)"/>
<defs>
<linearGradient id="paint0_linear_905_429" x1="7.0378" y1="0.37207" x2="7.0378" y2="31.6279" gradientUnits="userSpaceOnUse">
<stop stop-color="#767698"/>
<stop offset="0.609375" stop-color="#767698"/>
<stop offset="1" stop-color="#E50913"/>
</linearGradient>
</defs>
</svg>
