<svg width="32" height="32" viewBox="0 0 32 32" fill="none" xmlns="http://www.w3.org/2000/svg">
<path fill-rule="evenodd" clip-rule="evenodd" d="M15.6636 0.0791796C15.8747 -0.0263932 16.1233 -0.0263932 16.3344 0.0791796L31.5834 7.70369C31.8375 7.83073 31.998 8.09043 31.998 8.37451C31.998 8.65858 31.8375 8.91828 31.5834 9.04533L16.3344 16.6698C16.1233 16.7754 15.8747 16.7754 15.6636 16.6698L0.41459 9.04533C0.160502 8.91828 0 8.65858 0 8.37451C0 8.09043 0.160502 7.83073 0.41459 7.70369L15.6636 0.0791796ZM2.42705 8.37451L15.999 15.1605L29.571 8.37451L15.999 1.58853L2.42705 8.37451ZM0.0800235 23.2889C0.265265 22.9184 0.71577 22.7683 1.08625 22.9535L15.9999 30.4103L30.9135 22.9535C31.2839 22.7683 31.7344 22.9184 31.9197 23.2889C32.1049 23.6594 31.9548 24.1099 31.5843 24.2952L16.3353 31.9197C16.1241 32.0252 15.8756 32.0252 15.6644 31.9197L0.415434 24.2952C0.0449498 24.1099 -0.105218 23.6594 0.0800235 23.2889ZM1.08625 15.3292C0.71577 15.1439 0.265265 15.2941 0.0800235 15.6646C-0.105218 16.0351 0.0449498 16.4856 0.415434 16.6708L15.6644 24.2953C15.8756 24.4009 16.1241 24.4009 16.3353 24.2953L31.5843 16.6708C31.9548 16.4856 32.1049 16.0351 31.9197 15.6646C31.7344 15.2941 31.2839 15.1439 30.9135 15.3292L15.9999 22.786L1.08625 15.3292Z" fill="#EBEBEB"/>
</svg>
