<svg width="22" height="32" viewBox="0 0 22 32" fill="none" xmlns="http://www.w3.org/2000/svg">
<g clip-path="url(#clip0_582_687)">
<path d="M21.1153 17.7161L1.29565 31.8733C0.849597 32.1886 0.23999 31.8733 0.23999 31.3253V28.6155C0.23999 27.3994 0.827295 26.2509 1.80861 25.5528L13.7257 17.0405C14.4394 16.5301 14.4394 15.4642 13.7257 14.9537L1.80861 6.44893C0.827295 5.74332 0.23999 4.60234 0.23999 3.3863V0.676466C0.23999 0.128495 0.849597 -0.186776 1.29565 0.128495L21.1227 14.2857C22.2899 15.1189 22.2899 16.8754 21.1153 17.7161Z" fill="url(#paint0_linear_582_687)"/>
<path d="M6.81929 16.6118L1.4146 20.4701C0.92394 20.8229 0.23999 20.4626 0.23999 19.8546V12.138C0.23999 11.53 0.92394 11.1772 1.4146 11.5225L6.81929 15.3883C7.2356 15.681 7.2356 16.3116 6.81929 16.6118Z" fill="url(#paint1_linear_582_687)"/>
</g>
<defs>
<linearGradient id="paint0_linear_582_687" x1="0.783921" y1="11.2016" x2="21.4533" y2="11.2016" gradientUnits="userSpaceOnUse">
<stop stop-color="#E50913"/>
<stop offset="1" stop-color="#E60B74"/>
</linearGradient>
<linearGradient id="paint1_linear_582_687" x1="0.412279" y1="14.6146" x2="6.95924" y2="14.6146" gradientUnits="userSpaceOnUse">
<stop stop-color="#E50913"/>
<stop offset="1" stop-color="#E60B74"/>
</linearGradient>
<clipPath id="clip0_582_687">
<rect width="21.76" height="32" fill="white" transform="translate(0.23999)"/>
</clipPath>
</defs>
</svg>
