<svg width="32" height="32" viewBox="0 0 32 32" fill="none" xmlns="http://www.w3.org/2000/svg">
<path fill-rule="evenodd" clip-rule="evenodd" d="M21.2803 3.02672C20.8807 2.91753 20.4683 3.15292 20.3591 3.55248C20.2499 3.95205 20.4853 4.36447 20.8849 4.47366C21.8771 4.7448 22.7664 5.36342 23.4066 6.24365C24.0473 7.12462 24.3991 8.21452 24.3991 9.34165C24.3991 10.4688 24.0473 11.5587 23.4066 12.4396C22.7664 13.3199 21.8771 13.9385 20.8849 14.2096C20.4853 14.3188 20.2499 14.7313 20.3591 15.1308C20.4683 15.5304 20.8807 15.7658 21.2803 15.6566C22.6146 15.292 23.7873 14.4665 24.6197 13.3219C25.4516 12.1781 25.8991 10.7777 25.8991 9.34165C25.8991 7.90559 25.4516 6.50521 24.6197 5.36139C23.7873 4.21684 22.6146 3.39134 21.2803 3.02672ZM7.59975 9.34165C7.59975 6.66778 9.76735 4.50019 12.4412 4.50019C15.1151 4.50019 17.2827 6.66778 17.2827 9.34165C17.2827 12.0155 15.1151 14.1831 12.4412 14.1831C9.76735 14.1831 7.59975 12.0155 7.59975 9.34165ZM12.4412 3.00019C8.93892 3.00019 6.09975 5.83936 6.09975 9.34165C6.09975 12.8439 8.93892 15.6831 12.4412 15.6831C15.9435 15.6831 18.7827 12.8439 18.7827 9.34165C18.7827 5.83936 15.9435 3.00019 12.4412 3.00019ZM6.34146 19.2662C4.66692 19.2662 3.05649 19.911 1.86559 21.0658C0.673905 22.2214 0 23.7937 0 25.4382V28.1492C0 28.5634 0.335786 28.8992 0.75 28.8992C1.16421 28.8992 1.5 28.5634 1.5 28.1492V25.4382C1.5 24.2067 2.00429 23.0208 2.90981 22.1427C3.81611 21.2639 5.05011 20.7662 6.34146 20.7662H17.5244C18.8157 20.7662 20.0497 21.2639 20.956 22.1427C21.8616 23.0208 22.3658 24.2067 22.3658 25.4382V28.1492C22.3658 28.5634 22.7016 28.8992 23.1158 28.8992C23.5301 28.8992 23.8658 28.5634 23.8658 28.1492V25.4382C23.8658 23.7937 23.1919 22.2214 22.0003 21.0658C20.8094 19.911 19.1989 19.2662 17.5244 19.2662H6.34146ZM26.4572 19.8248C26.5629 19.4243 26.9733 19.1853 27.3738 19.291C28.7011 19.6413 29.8738 20.4315 30.7097 21.5336C31.5454 22.6355 31.9979 23.9877 31.9989 25.3776L31.9989 25.3782V28.1492C31.9989 28.5634 31.6631 28.8992 31.2489 28.8992C30.8347 28.8992 30.4989 28.5634 30.4989 28.1492V25.3787C30.4981 24.3128 30.1509 23.2792 29.5145 22.4401C28.8784 21.6012 27.9901 21.005 26.991 20.7414C26.5905 20.6357 26.3515 20.2253 26.4572 19.8248Z" fill="#EBEBEB"/>
</svg>
