<svg width="26" height="24" viewBox="0 0 26 24" fill="none" xmlns="http://www.w3.org/2000/svg">
<path fill-rule="evenodd" clip-rule="evenodd" d="M12.8125 3.5625C12.8125 2.8125 12.8124 2.8125 12.8124 2.8125H12.8121H12.8109L12.8066 2.8125L12.7901 2.81252L12.7261 2.81263C12.67 2.81275 12.5879 2.81301 12.4828 2.81351C12.2725 2.81452 11.9705 2.81654 11.6023 2.82056C10.8662 2.82862 9.86436 2.84473 8.80265 2.877C7.74217 2.90924 6.61584 2.95777 5.63275 3.03111C4.67104 3.10286 3.7816 3.20234 3.23328 3.35234L3.23325 3.35226L3.22269 3.35532C2.57973 3.54138 1.99813 3.89715 1.53578 4.38469C1.07353 4.87212 0.746688 5.47407 0.58641 6.12906C0.582519 6.14496 0.57915 6.16098 0.576307 6.1771C0.225365 8.16763 0.0535884 10.1868 0.0631127 12.2093C0.0508513 14.2471 0.222641 16.2817 0.576313 18.2872C0.580525 18.3111 0.585893 18.3347 0.592398 18.3581C0.769139 18.9929 1.10344 19.5721 1.56474 20.0391C2.02615 20.5062 2.59911 20.8452 3.22903 21.0215L3.23328 21.0227C3.7816 21.1727 4.67104 21.2721 5.63275 21.3439C6.61584 21.4172 7.74217 21.4658 8.80265 21.498C9.86436 21.5303 10.8662 21.5464 11.6023 21.5544C11.9705 21.5585 12.2725 21.5605 12.4828 21.5615C12.5879 21.562 12.67 21.5622 12.7261 21.5624L12.7901 21.5625L12.8066 21.5625L12.8109 21.5625H12.8121H12.8124C12.8124 21.5625 12.8125 21.5625 12.8125 20.8125C12.8125 21.5625 12.8126 21.5625 12.8126 21.5625H12.8129H12.8141L12.8184 21.5625L12.8349 21.5625L12.8989 21.5624C12.955 21.5622 13.0371 21.562 13.1422 21.5615C13.3525 21.5605 13.6545 21.5585 14.0227 21.5544C14.7588 21.5464 15.7606 21.5303 16.8224 21.498C17.8828 21.4658 19.0092 21.4172 19.9923 21.3439C20.954 21.2721 21.8434 21.1727 22.3917 21.0227L22.3918 21.0227L22.4023 21.0197C23.0453 20.8336 23.6269 20.4779 24.0892 19.9903C24.5515 19.5029 24.8783 18.9009 25.0386 18.2459C25.0425 18.23 25.0459 18.214 25.0487 18.1979C25.397 16.2222 25.5687 14.2182 25.5619 12.2108C25.5742 10.1729 25.4024 8.13813 25.0487 6.13244L24.3101 6.26269L25.0386 6.08443C24.8783 5.42944 24.5515 4.82749 24.0892 4.34006C23.6269 3.85252 23.0453 3.49675 22.4023 3.31069C22.3934 3.30812 22.3845 3.30572 22.3756 3.30348C21.8333 3.16803 20.9494 3.07746 19.9874 3.01194C19.0057 2.94506 17.8804 2.90079 16.8204 2.87137C15.7592 2.84192 14.7578 2.82721 14.022 2.81986C13.6539 2.81618 13.352 2.81434 13.1419 2.81342C13.0369 2.81296 12.9548 2.81273 12.8988 2.81262L12.8348 2.81251L12.8183 2.8125L12.8141 2.8125H12.8129H12.8126C12.8126 2.8125 12.8125 2.8125 12.8125 3.5625ZM12.8125 3.5625L12.8125 4.3125H12.8123L12.8113 4.3125L12.8075 4.3125L12.7917 4.31252L12.7295 4.31262C12.6746 4.31275 12.5937 4.313 12.49 4.31349C12.2824 4.31449 11.9835 4.31648 11.6187 4.32047C10.889 4.32846 9.89731 4.34442 8.84822 4.37631C7.7979 4.40824 6.69616 4.45594 5.74435 4.52695C4.77557 4.59923 4.02568 4.69171 3.63438 4.79773C3.25236 4.90931 2.9037 5.12211 2.62419 5.41686C2.34846 5.70761 2.14976 6.06791 2.04901 6.46324C1.71646 8.35837 1.55381 10.2807 1.56311 12.2062L1.56315 12.2144H1.56311C1.55123 14.1503 1.71316 16.0832 2.04683 17.9886C2.15798 18.367 2.3596 18.7093 2.63187 18.985C2.91138 19.2679 3.25582 19.471 3.63127 19.5764C4.0217 19.6828 4.773 19.7756 5.74435 19.848C6.69616 19.9191 7.7979 19.9668 8.84822 19.9987C9.89731 20.0306 10.889 20.0465 11.6187 20.0545C11.9835 20.0585 12.2824 20.0605 12.49 20.0615C12.5937 20.062 12.6746 20.0623 12.7295 20.0624L12.7917 20.0625L12.8075 20.0625L12.8113 20.0625H12.8123H12.8125L12.8125 20.8125L12.8125 20.0625H12.8127H12.8137L12.8175 20.0625L12.8333 20.0625L12.8955 20.0624C12.9504 20.0623 13.0313 20.062 13.135 20.0615C13.3426 20.0605 13.6415 20.0585 14.0063 20.0545C14.736 20.0465 15.7277 20.0306 16.7768 19.9987C17.8271 19.9668 18.9288 19.9191 19.8807 19.848C20.8494 19.7758 21.5993 19.6833 21.9906 19.5773C22.3726 19.4657 22.7213 19.2529 23.0008 18.9581C23.2765 18.6674 23.4752 18.3071 23.576 17.9118C23.906 16.031 24.0686 14.1234 24.0619 12.2125L24.0619 12.2052H24.0619C24.0738 10.2651 23.9111 8.32809 23.576 6.41862C23.4753 6.02329 23.2765 5.66298 23.0008 5.37223C22.7232 5.07952 22.3775 4.86762 21.9985 4.75543C21.5991 4.65799 20.8474 4.574 19.8855 4.50847C18.9323 4.44354 17.8295 4.39995 16.7788 4.37079C15.7291 4.34166 14.737 4.32708 14.007 4.31978C13.6421 4.31614 13.343 4.31432 13.1354 4.31341C13.0315 4.31295 12.9506 4.31273 12.8957 4.31261L12.8333 4.31251L12.8176 4.3125L12.8137 4.3125L12.8128 4.3125H12.8125L12.8125 3.5625ZM10.9536 7.42254C10.7221 7.28107 10.4323 7.27565 10.1956 7.40835C9.95901 7.54106 9.8125 7.79121 9.8125 8.0625V16.3125C9.8125 16.5838 9.95901 16.8339 10.1956 16.9666C10.4323 17.0994 10.7221 17.0939 10.9536 16.9525L17.7036 12.8275C17.9265 12.6912 18.0625 12.4488 18.0625 12.1875C18.0625 11.9262 17.9265 11.6838 17.7036 11.5475L10.9536 7.42254ZM15.8742 12.1875L11.3125 14.9752V9.39979L15.8742 12.1875Z" fill="url(#paint0_linear_450_1074)"/>
<defs>
<linearGradient id="paint0_linear_450_1074" x1="0.7" y1="9.375" x2="24.925" y2="9.375" gradientUnits="userSpaceOnUse">
<stop stop-color="#E50913"/>
<stop offset="1" stop-color="#E60B74"/>
</linearGradient>
</defs>
</svg>
