<?xml version="1.0" encoding="UTF-8"?>
<svg width="200px" height="200px" viewBox="0 0 200 200" version="1.1" xmlns="http://www.w3.org/2000/svg" xmlns:xlink="http://www.w3.org/1999/xlink">
    <!-- Generator: Sketch 51.3 (57544) - http://www.bohemiancoding.com/sketch -->
    <title>cs go game mono icon</title>
    <desc>Created with Sketch.</desc>
    <defs></defs>
    <g id="cs-go-game-mono-icon" stroke="none" stroke-width="1" fill="none" fill-rule="evenodd">
        <g id="1">
            <rect id="Rectangle-6" x="0" y="0" width="200" height="200"></rect>
            <path d="M122.20303,55.828175 L117.906527,55.828175 L117.906527,55.0762536 C119.083157,55.0989582 119.831072,54.8452014 119.307532,53.8114765 C118.512873,52.2515403 121.954615,52.3343451 122.462129,52.6709067 C123.360962,53.2679029 122.769308,54.9947844 122.20303,55.828175 Z M116.325222,56.8725843 L121.536585,56.8725843 C120.959622,57.7473773 119.334243,60.7003046 118.287163,60.7056469 C117.863789,60.1166641 116.476141,58.2041395 116.325222,56.8725843 Z M133.252133,50.6021214 C133.023752,50.7183153 132.761982,50.8305025 132.393367,50.8999517 C130.753297,53.2198226 131.742948,52.947368 128.851457,54.8852683 C128.858135,58.7730889 128.968986,59.1911197 129.881175,62.6355337 C129.90388,62.7183386 129.89186,62.7984723 129.84645,62.8705926 C129.802377,62.942713 129.736934,62.9907932 129.652794,63.0081555 C128.954295,63.1577384 127.949953,63.4155019 127.367648,63.5250179 C127.386346,63.6478896 127.662807,65.8488956 127.350285,67.48763 C126.86147,70.0612577 120.736583,75.693322 119.274143,75.9818034 C117.250767,76.3798008 114.98966,74.5928191 111.454428,73.0422318 C110.479468,72.6135164 107.210013,70.4645974 105.497822,69.8929769 C104.07812,69.420188 102.654411,72.8766221 104.417353,73.803502 C105.238723,74.2348885 106.548909,74.8158579 106.962934,75.8883141 C108.188979,79.0669513 106.769277,91.3260736 104.242394,93.7915208 C103.04306,93.7821719 102.033375,92.6816689 101.142555,92.9688147 C99.5519008,93.839601 100.558914,98.7023818 101.142555,99.549128 C110.928217,109.616593 109.766278,117.0717 113.921211,122.638321 C115.816373,122.638321 114.572965,124.645671 116.008694,127.004273 C116.392,128.215628 115.899178,130.272393 115.692166,131.052361 C115.692166,132.064717 115.692166,133.077073 115.692166,134.089429 C115.587992,134.405957 115.482483,134.72115 115.375638,135.037678 C115.375638,135.924491 115.375638,136.809968 115.375638,137.695446 C115.085821,138.989605 114.765286,140.7245 114.491496,141.933184 C113.911862,144.484107 116.15427,146.466081 114.806688,148.892796 C114.806688,150.384619 114.812031,150.086789 113.921211,151.296808 C113.921211,153.612672 113.376302,158.492815 113.921211,160.217025 C114.30051,161.41636 118.650435,166.499508 119.741589,166.985653 C122.371311,168.156941 126.248447,167.904519 124.991683,172.047432 C117.293505,174.410041 112.378637,170.714542 108.277126,170.654441 L108.08347,171.359618 C105.457755,171.363625 103.358252,170.717213 102.786632,170.528899 C102.782625,169.81838 103.636049,164.377301 103.925866,163.506514 C104.221025,163.041739 104.51752,162.578299 104.811343,162.114859 C105.130543,161.187979 104.486802,154.391305 104.432044,152.561585 C102.791974,151.356908 102.471439,147.684113 102.471439,145.666079 C101.99865,144.104807 101.997315,142.253718 101.90249,140.225 C101.857081,139.27408 101.289467,137.877082 101.648733,136.68309 C101.893141,135.868397 102.812007,135.513138 103.040388,134.848028 C103.040388,134.089429 103.040388,133.329494 103.040388,132.570895 C103.47311,130.174897 103.338219,129.070387 101.90249,127.637329 C98.3031505,127.684074 97.8063215,127.856362 95.8283544,124.789912 C95.2139959,123.83632 90.1789277,115.892398 89.6927832,115.680044 C85.5031256,113.85166 86.3365162,114.563514 84.5041254,111.315428 C84.4293339,111.316764 83.3141397,111.68805 82.3284951,113.16251 C80.8299947,115.402247 78.1762333,122.681059 77.4189697,125.233318 C76.9969321,126.657027 77.4216408,128.230319 76.7872489,129.408284 C76.3278157,130.260373 74.8319864,130.534163 74.510116,131.116468 C73.0409979,133.760881 74.1415009,133.555204 71.3461699,135.416977 C70.8426631,136.06606 70.8279719,137.039685 70.4606924,137.820989 C70.2496736,138.117483 70.0386549,138.412643 69.8276361,138.707802 C69.3575183,139.717486 70.3271362,141.556555 70.1441642,142.18694 C69.6606909,143.844373 69.0222923,145.516496 68.3732092,147.057734 C67.0910698,150.098809 67.2580151,154.136212 65.9665267,156.005999 C65.3174437,156.944899 63.7481585,156.028703 62.5528306,156.800658 C62.4833814,157.453748 60.5842125,161.794324 60.2129263,163.000336 C60.2129263,165.298838 60.2129263,167.59734 60.2129263,169.895842 C60.5695213,171.057781 61.5498237,172.164962 61.2573356,173.635415 C60.9474853,175.202029 55.4983929,175.176654 52.5414589,174.751945 C50.5621563,174.466135 49.9691668,173.007701 50.0012203,171.320887 C50.0399516,169.329564 54.0666706,156.393312 53.8222628,155.534546 C50.7651617,152.095474 54.6409622,148.556235 55.7842031,145.349551 C56.3411324,143.786943 55.9992286,141.605971 56.6069092,140.162229 C57.6820365,138.201624 58.7571638,136.239683 59.8336267,134.279079 C61.7942315,132.426654 60.920774,132.333165 61.9838813,130.673062 C62.905419,129.233326 64.0232842,128.262372 63.3755367,126.056024 C62.0720284,121.616617 64.8967417,115.32612 65.0837204,110.682372 C64.5828847,110.154825 62.88405,110.32177 62.6703601,108.906074 C62.237638,106.023932 63.7628497,100.919414 64.7030852,100.434605 C65.1211161,100.218244 65.5979117,100.410565 65.9691979,100.180849 C65.9678623,98.0185741 63.8189433,85.9864973 65.4523354,85.3774811 C66.4593491,85.0021882 68.7738778,84.8045251 69.2186199,84.6028552 C69.1919086,84.0899995 68.8393203,82.9948387 68.4146116,82.936074 C67.6974149,82.8359069 66.2256257,82.55811 65.054338,82.2883265 C61.4590055,81.4589426 64.7858901,67.2792823 64.8299636,67.2218532 C65.8196149,65.9156737 70.4099411,67.6772798 70.9668704,65.4495626 C72.5014309,63.4916289 69.7835625,55.9577245 75.0203006,46.6822473 C76.7885845,43.5490192 80.1755694,40.3850732 84.1248258,41.7273128 C85.4497032,42.1760616 84.6456949,44.0792373 86.9722437,42.043841 C87.0310084,40.8565265 86.4794213,39.8615329 86.1495376,38.879895 C82.2817504,27.3419761 95.3849478,21.090211 104.558922,27.6825443 C105.589976,28.1005752 106.189643,28.3075873 106.962934,28.88455 C107.467776,31.496909 110.05743,36.1446643 107.467776,39.1964231 C106.410011,39.4221331 105.111845,40.0151225 104.305165,40.5880786 C104.29181,41.6431724 104.428037,42.6141259 104.621694,43.2445111 C104.795317,43.8121249 105.126536,44.0364993 104.273112,44.3837454 C104.166267,44.4264834 104.211676,44.7804073 104.270441,44.9126279 C106.411347,45.3346654 108.693822,44.5173016 110.125544,43.9403388 L111.835063,43.9403388 L111.835063,41.7874131 L112.651092,41.7874131 L112.651092,40.0992629 L113.46712,40.0992629 L113.46712,43.01613 L115.600012,43.01613 L115.600012,43.9403388 L147.22211,43.9403388 L147.22211,45.5830799 L148.621779,45.5830799 L148.621779,39.5743871 L149.797074,39.5743871 L149.797074,44.4598724 L152.488231,44.4598724 L152.488231,47.2498611 L160.859532,47.2498611 L160.859532,46.4204772 L162.253859,46.4204772 L162.253859,46.7850856 L166.208458,46.7850856 L166.208458,49.1102988 L162.253859,49.1102988 L162.253859,49.4749072 L160.859532,49.4749072 L160.859532,48.6455233 L152.488231,48.6455233 L152.488231,49.4762428 C151.259514,49.4762428 150.030797,49.4762428 148.80208,49.4762428 L148.80208,48.9139712 L147.22211,48.9139712 L147.22211,50.6021214 L133.252133,50.6021214 Z" id="cs_go" fill="#F19B1F"></path>
        </g>
    </g>
</svg>