<svg width="19" height="42" viewBox="0 0 19 42" fill="none" xmlns="http://www.w3.org/2000/svg">
<path fill-rule="evenodd" clip-rule="evenodd" d="M9.75258 0.0540541C9.60481 -0.018018 9.30928 -0.018018 9.16151 0.0540541C8.71821 0.342343 1.03436 6.25226 3.84192 22.973L0.0738832 28.955C0 29.0991 0 29.1712 0 29.2433V39.1892C0 39.4055 0.0738832 39.5496 0.295533 39.6217C0.443299 39.6937 0.664948 39.6937 0.812715 39.6217L7.83161 35.2973H11.0825L18.1014 39.6217C18.2491 39.6937 18.4708 39.7658 18.6186 39.6217C18.6555 39.6217 18.674 39.6037 18.6924 39.5856C18.7109 39.5676 18.7294 39.5496 18.7663 39.5496C18.8402 39.4775 18.9141 39.3334 18.9141 39.1892V29.2433C18.9141 29.1712 18.9141 29.0271 18.8402 28.955L15.0722 22.973C17.8797 6.25226 10.1959 0.342343 9.75258 0.0540541ZM9.45704 1.20721C10.2698 1.92793 12.3385 4.23424 13.5206 8.55857H5.31959C6.5756 4.23424 8.64433 1.92793 9.45704 1.20721ZM1.10825 29.3874L4.21134 24.4865C4.80241 27.5135 5.76289 30.8289 7.09278 34.5046L1.10825 38.1802V29.3874ZM17.8058 29.3874V38.1802L11.8213 34.5046C13.1512 30.8289 14.1117 27.5135 14.7027 24.4865L17.8058 29.3874ZM10.8608 34.2163H8.05326C3.84192 22.7568 3.84192 14.8288 5.09794 9.63965H13.8162C15.0722 14.9009 14.9983 22.8289 10.8608 34.2163ZM7.97931 37.1712C7.75766 37.1712 7.60989 37.2433 7.53601 37.4595L5.46728 41.2072C5.39339 41.3514 5.39339 41.5676 5.46728 41.7117C5.54116 41.8559 5.76281 42 5.91058 42H12.9295C13.0772 42 13.225 41.9279 13.2989 41.8559L13.3728 41.7838C13.4467 41.6397 13.4467 41.4234 13.3728 41.2793L11.3779 37.4595C11.304 37.3153 11.0824 37.1712 10.9346 37.1712H7.97931ZM12.0429 40.9189H6.79717L8.27484 38.2523H10.5652L12.0429 40.9189ZM9.4571 18.5766C8.05332 18.5766 6.94507 17.4955 6.94507 16.1261C6.94507 14.7568 8.05332 13.6757 9.4571 13.6757C10.8609 13.6757 11.9691 14.7568 11.9691 16.1261C11.9691 16.7748 11.6736 17.4234 11.2303 17.8559C10.787 18.2883 10.122 18.5766 9.4571 18.5766ZM9.38321 17.5676C10.1959 17.5676 10.8609 16.9189 10.8609 16.1261C10.8609 15.3333 10.2698 14.6847 9.38321 14.6847C8.93991 14.6847 8.64438 14.8288 8.34885 15.1171C8.05332 15.4054 7.90555 15.7658 7.90555 16.1261C7.90555 16.9189 8.5705 17.5676 9.38321 17.5676Z" fill="#EBEBEB"/>
</svg>
