<svg width="200" height="200" xmlns="http://www.w3.org/2000/svg">
 <!-- Generator: Sketch 51.3 (57544) - http://www.bohemiancoding.com/sketch -->
 <title>cs go game mono icon</title>
 <desc>Created with Sketch.</desc>

 <g>
  <title>background</title>
  <rect fill="none" id="canvas_background" height="402" width="582" y="-1" x="-1"/>
 </g>
 <g>
  <title>Layer 1</title>
  <g fill-rule="evenodd" fill="none" id="cs-go-game-mono-icon">
   <g stroke="null" id="1">
    <rect stroke="null" height="259.99999" width="259.99999" y="-29.99999" x="-20" id="Rectangle-6"/>
    <path stroke="null" fill="#F19B1F" id="cs_go" d="m138.863933,42.576641l-5.58545,0l0,-0.977509c1.529619,0.029523 2.501902,-0.300365 1.8213,-1.644201c-1.033058,-2.027922 3.441217,-1.920269 4.10098,-1.482741c1.168479,0.776087 0.399334,3.021031 -0.33683,4.104451zm-7.641153,1.35772l6.774781,0c-0.750061,1.13724 -2.863055,4.976036 -4.224259,4.982991c-0.550381,-0.765687 -2.354326,-3.251963 -2.550522,-4.982991zm22.004982,-8.151598c-0.296894,0.15106 -0.637195,0.296894 -1.116388,0.387179c-2.132091,3.015831 -0.845546,2.661646 -4.604483,5.180916c0.008684,5.054166 0.152789,5.597605 1.338636,10.075338c0.02951,0.107653 0.013884,0.211822 -0.045149,0.305578c-0.057291,0.093756 -0.142376,0.15626 -0.251758,0.178841c-0.908037,0.194454 -2.213692,0.529542 -2.970682,0.671918c0.02431,0.159731 0.383708,3.021044 -0.022581,5.151393c-0.635453,3.345719 -8.59781,10.667397 -10.498982,11.042421c-2.630381,0.5174 -5.569824,-1.805674 -10.165623,-3.821441c-1.267448,-0.557323 -5.517746,-3.350919 -7.743593,-4.094025c-1.84561,-0.614627 -3.696433,3.878732 -1.404611,5.083676c1.067781,0.560807 2.771028,1.316068 3.309254,2.710253c1.593865,4.132232 -0.251745,20.069087 -3.536702,23.274172c-1.559129,-0.012155 -2.871713,-1.442805 -4.029779,-1.069523c-2.067858,1.132027 -0.758745,7.453641 0,8.554416c12.721358,13.087698 11.210836,22.77934 16.612244,30.015946c2.463708,0 0.847275,2.609555 2.713724,5.675735c0.498303,1.574768 -0.142363,4.248556 -0.411476,5.262517c0,1.316068 0,2.632123 0,3.948191c-0.135434,0.411489 -0.272597,0.821236 -0.411489,1.232725c0,1.152853 0,2.303977 0,3.455101c-0.376766,1.682408 -0.793455,3.937765 -1.149382,5.509049c-0.753532,3.316209 2.161601,5.89277 0.409747,9.047506c0,1.939366 0.006942,1.552187 -1.151124,3.125213c0,3.010618 -0.708383,9.354813 0,11.596286c0.49309,1.559129 6.147999,8.167224 7.566494,8.799206c3.418636,1.522677 8.458918,1.194531 6.825117,6.580314c-10.007634,3.071393 -16.396951,-1.732757 -21.728914,-1.810887l-0.251758,0.916734c-3.413423,0.005213 -6.142786,-0.835133 -6.885892,-1.079936c-0.005213,-0.923676 1.104246,-7.99708 1.481012,-9.129107c0.383695,-0.604201 0.769145,-1.206673 1.151111,-1.809145c0.41496,-1.204944 -0.421902,-10.040628 -0.49309,-12.419251c-2.132091,-1.566084 -2.54878,-6.340724 -2.54878,-8.964163c-0.614627,-2.029651 -0.616356,-4.436068 -0.739635,-7.073404c-0.059033,-1.236196 -0.796926,-3.052296 -0.329888,-4.604483c0.317733,-1.059097 1.512264,-1.520935 1.809158,-2.385578c0,-0.98618 0,-1.974102 0,-2.960269c0.562536,-3.1148 0.387179,-4.550663 -1.47927,-6.413641c-4.679142,0.060762 -5.325021,0.284739 -7.896382,-3.701646c-0.798655,-1.239667 -7.344246,-11.566763 -7.976241,-11.842831c-5.446545,-2.376894 -4.363138,-1.451489 -6.745245,-5.673993c-0.09724,0.001729 -1.546987,0.484406 -2.828319,2.401204c-1.948063,2.911662 -5.397951,12.374115 -6.382389,15.692052c-0.548652,1.850823 0.003471,3.8961 -0.821236,5.427448c-0.597259,1.107717 -2.541838,1.463644 -2.960269,2.220647c-1.909856,3.437733 -0.479206,3.170349 -4.113135,5.590663c-0.654563,0.843804 -0.67366,2.10951 -1.151124,3.125213c-0.274326,0.385437 -0.548652,0.769145 -0.822965,1.152853c-0.611156,1.312597 0.64935,3.703388 0.411476,4.522882c-0.628511,2.154659 -1.458431,4.328428 -2.302235,6.332027c-1.666782,3.953404 -1.449747,9.202024 -3.128684,11.632751c-0.843817,1.22057 -2.883881,0.02951 -4.43781,1.033058c-0.090285,0.849017 -2.559206,6.491758 -3.04187,8.059584c0,2.98805 0,5.9761 0,8.96415c0.463567,1.510522 1.737957,2.949856 1.357733,4.861441c-0.402805,2.036606 -7.486635,2.003612 -11.330644,1.451502c-2.57309,-0.371553 -3.343977,-2.267525 -3.302312,-4.460378c0.050349,-2.588729 5.285085,-19.405853 4.967352,-20.522241c-3.97423,-4.470804 1.06431,-9.071816 2.550522,-13.2405c0.724009,-2.031393 0.279539,-4.866654 1.069523,-6.743516c1.397669,-2.548793 2.795325,-5.099315 4.194736,-7.648095c2.54878,-2.408159 1.413282,-2.529683 2.795325,-4.687826c1.198002,-1.871649 2.65122,-3.133897 1.809158,-6.002152c-1.694563,-5.77122 1.97756,-13.948869 2.220634,-19.985744c-0.651092,-0.685802 -2.859571,-0.46878 -3.137368,-2.30919c-0.562536,-3.746782 1.420237,-10.382658 2.642549,-11.012898c0.543439,-0.281281 1.163266,-0.031252 1.645943,-0.329888c-0.001742,-2.810964 -2.795338,-18.452654 -0.671918,-19.24438c1.309113,-0.487877 4.318002,-0.744835 4.896164,-1.007006c-0.034723,-0.666718 -0.49309,-2.090426 -1.045213,-2.166827c-0.93236,-0.130208 -2.845674,-0.491348 -4.368351,-0.842062c-4.673929,-1.078207 -0.348985,-19.511764 -0.291694,-19.586423c1.286545,-1.698034 7.253974,0.592059 7.977983,-2.303977c1.994928,-2.545309 -1.538303,-12.339392 5.269459,-24.397502c2.298764,-4.073199 6.701851,-8.186334 11.835889,-6.441422c1.722331,0.583375 0.677118,3.057509 3.701633,0.411489c0.076401,-1.543503 -0.640666,-2.837003 -1.06951,-4.113135c-5.028127,-14.999282 12.006033,-23.126583 23.932193,-14.556554c1.340378,0.543452 2.119936,0.812565 3.125213,1.562613c0.656305,3.396068 4.02285,9.438143 0.656305,13.405431c-1.375101,0.293423 -3.062709,1.06431 -4.111393,1.809158c-0.017368,1.371617 0.159731,2.633865 0.411476,3.453359c0.225719,0.737893 0.656305,1.029587 -0.453154,1.481012c-0.138892,0.055549 -0.079859,0.515658 -0.003471,0.687544c2.783183,0.548652 5.750394,-0.513929 7.61163,-1.263977l2.222376,0l0,-2.798809l1.060839,0l0,-2.194595l1.060839,0l0,3.791931l2.772757,0l0,1.201473l41.108728,0l0,2.135562l1.819571,0l0,-7.811297l1.527877,0l0,6.351124l3.498508,0l0,3.626987l10.88269,0l0,-1.078194l1.812629,0l0,0.473993l5.14098,0l0,3.022773l-5.14098,0l0,0.473993l-1.812629,0l0,-1.078207l-10.88269,0l0,1.079936c-1.597336,0 -3.194659,0 -4.791995,0l0,-0.730951l-2.053961,0l0,2.194595l-18.160973,0z"/>
   </g>
  </g>
 </g>
</svg>