<?xml version="1.0" encoding="iso-8859-1"?>
<svg version="1.1" id="Capa_1" xmlns="http://www.w3.org/2000/svg" xmlns:xlink="http://www.w3.org/1999/xlink" x="0px" y="0px"
	 viewBox="0 0 512 512" style="enable-background:new 0 0 512 512;" xml:space="preserve">
<path style="fill:#D5011D;" d="M512,0h-63.541L422,13.229L395.541,0H271l-15,7.5l-50,101.745l50,82.98L422,317l-15,105h-60
	l-38.885-45.694l-8.019-32.568l-30.866-13.126L256,315.066l-30,86.895L256,512l26.459-13.229L308.918,512H512V308.918
	l-13.229-26.459L512,256V0z M422,225L287,90h90l45,45V225z"/>
<path style="fill:#FF4B37;" d="M90,120l30-30l136,102.225V7.5L241,15h-82.918l-30-15H0v241l15,30v82.918l-15,30V512h256V315.066
	L90,120z M135,422l-45-45v-90l135,135H135z"/>
<g>
</g>
<g>
</g>
<g>
</g>
<g>
</g>
<g>
</g>
<g>
</g>
<g>
</g>
<g>
</g>
<g>
</g>
<g>
</g>
<g>
</g>
<g>
</g>
<g>
</g>
<g>
</g>
<g>
</g>
</svg>
