<svg width="13" height="18" viewBox="0 0 13 18" fill="none" xmlns="http://www.w3.org/2000/svg">
<mask id="path-1-inside-1_967_413" fill="white">
<path fill-rule="evenodd" clip-rule="evenodd" d="M0.864914 17.29L11.8851 9.53881C12.4606 9.13299 12.4606 8.28483 11.8851 7.88307L0.864914 0.131927C0.62002 -0.0425755 0.28125 0.131927 0.28125 0.432233V2.22595C0.28125 2.67235 0.501655 3.09441 0.868996 3.35413L7.82399 8.24425C8.14643 8.47151 8.14643 8.95037 7.82399 9.17763L0.868996 14.0677C0.501655 14.3275 0.28125 14.7455 0.28125 15.1959V16.9896C0.28125 17.29 0.62002 17.4645 0.864914 17.29ZM0.603694 11.3526L4.12609 8.87309C4.24037 8.79192 4.24037 8.62554 4.12609 8.54437L0.603694 6.06482C0.469002 5.97148 0.28125 6.06482 0.28125 6.2312V11.1863C0.28125 11.3526 0.469002 11.446 0.603694 11.3526Z"/>
</mask>
<path fill-rule="evenodd" clip-rule="evenodd" d="M0.864914 17.29L11.8851 9.53881C12.4606 9.13299 12.4606 8.28483 11.8851 7.88307L0.864914 0.131927C0.62002 -0.0425755 0.28125 0.131927 0.28125 0.432233V2.22595C0.28125 2.67235 0.501655 3.09441 0.868996 3.35413L7.82399 8.24425C8.14643 8.47151 8.14643 8.95037 7.82399 9.17763L0.868996 14.0677C0.501655 14.3275 0.28125 14.7455 0.28125 15.1959V16.9896C0.28125 17.29 0.62002 17.4645 0.864914 17.29ZM0.603694 11.3526L4.12609 8.87309C4.24037 8.79192 4.24037 8.62554 4.12609 8.54437L0.603694 6.06482C0.469002 5.97148 0.28125 6.06482 0.28125 6.2312V11.1863C0.28125 11.3526 0.469002 11.446 0.603694 11.3526Z" fill="url(#paint0_linear_967_413)"/>
<path d="M11.8851 9.53881L13.0358 11.1747L13.0377 11.1733L11.8851 9.53881ZM0.864914 17.29L-0.285713 15.654L-0.295699 15.6612L0.864914 17.29ZM11.8851 7.88307L10.7345 9.51896L10.7403 9.52299L11.8851 7.88307ZM0.864914 0.131927L-0.295724 1.76075L-0.285692 1.76781L0.864914 0.131927ZM0.868996 3.35413L-0.285634 4.98718L-0.28134 4.9902L0.868996 3.35413ZM7.82399 8.24425L8.97617 6.60948L8.97432 6.60818L7.82399 8.24425ZM7.82399 9.17763L8.97433 10.8137L8.97617 10.8124L7.82399 9.17763ZM0.868996 14.0677L-0.281344 12.4317L-0.285631 12.4347L0.868996 14.0677ZM4.12609 8.87309L5.27734 10.5085L5.28415 10.5037L4.12609 8.87309ZM0.603694 11.3526L1.74286 12.9965L1.74892 12.9923L1.75494 12.9881L0.603694 11.3526ZM4.12609 8.54437L5.28415 6.91374L5.27733 6.90894L4.12609 8.54437ZM0.603694 6.06482L1.75494 4.42939L1.74891 4.42515L1.74286 4.42095L0.603694 6.06482ZM10.7345 7.90293L-0.285692 15.6541L2.01552 18.9258L13.0358 11.1747L10.7345 7.90293ZM10.7403 9.52299C10.1699 9.12478 10.1839 8.29123 10.7326 7.90432L13.0377 11.1733C14.7374 9.97475 14.7514 7.44488 13.03 6.24315L10.7403 9.52299ZM-0.285692 1.76781L10.7345 9.51895L13.0358 6.24719L2.01552 -1.50395L-0.285692 1.76781ZM2.28125 0.432233C2.28125 1.76042 0.781095 2.52801 -0.295702 1.76072L2.02553 -1.49687C0.458945 -2.61316 -1.71875 -1.49656 -1.71875 0.432233H2.28125ZM2.28125 2.22595V0.432233H-1.71875V2.22595H2.28125ZM2.02362 1.72108C2.1794 1.83122 2.28125 2.01446 2.28125 2.22595H-1.71875C-1.71875 3.33025 -1.17609 4.35759 -0.28563 4.98718L2.02362 1.72108ZM8.97432 6.60818L2.01933 1.71806L-0.28134 4.9902L6.67365 9.88032L8.97432 6.60818ZM8.97617 10.8124C10.429 9.78842 10.429 7.63346 8.97617 6.60948L6.6718 9.87902C5.86383 9.30956 5.86383 8.11232 6.6718 7.54286L8.97617 10.8124ZM2.01933 15.7038L8.97432 10.8137L6.67365 7.54156L-0.28134 12.4317L2.01933 15.7038ZM2.28125 15.1959C2.28125 15.4066 2.17674 15.5925 2.02362 15.7008L-0.285631 12.4347C-1.17343 13.0624 -1.71875 14.0844 -1.71875 15.1959H2.28125ZM2.28125 16.9896V15.1959H-1.71875V16.9896H2.28125ZM-0.295699 15.6612C0.781092 14.8939 2.28125 15.6615 2.28125 16.9896H-1.71875C-1.71875 18.9185 0.458948 20.035 2.02553 18.9187L-0.295699 15.6612ZM2.97484 7.23765L-0.547551 9.71721L1.75494 12.9881L5.27733 10.5085L2.97484 7.23765ZM2.96803 10.175C1.95971 9.45889 1.95973 7.95856 2.96803 7.24247L5.28415 10.5037C6.52101 9.62528 6.52103 7.79218 5.28414 6.91375L2.96803 10.175ZM-0.547552 7.70025L2.97484 10.1798L5.27733 6.90894L1.75494 4.42939L-0.547552 7.70025ZM2.28125 6.2312C2.28125 7.7446 0.601611 8.49666 -0.535472 7.70869L1.74286 4.42095C0.336393 3.4463 -1.71875 4.38504 -1.71875 6.2312H2.28125ZM2.28125 11.1863V6.2312H-1.71875V11.1863H2.28125ZM-0.535476 9.70877C0.601616 8.92079 2.28125 9.67287 2.28125 11.1863H-1.71875C-1.71875 13.0324 0.336388 13.9712 1.74286 12.9965L-0.535476 9.70877Z" fill="url(#paint1_linear_967_413)" mask="url(#path-1-inside-1_967_413)"/>
<defs>
<linearGradient id="paint0_linear_967_413" x1="0.582138" y1="6.11641" x2="12.0159" y2="6.11641" gradientUnits="userSpaceOnUse">
<stop stop-color="#E50913"/>
<stop offset="1" stop-color="#E60B74"/>
</linearGradient>
<linearGradient id="paint1_linear_967_413" x1="0.582138" y1="6.11641" x2="12.0159" y2="6.11641" gradientUnits="userSpaceOnUse">
<stop stop-color="#E50913"/>
<stop offset="1" stop-color="#E60B74"/>
</linearGradient>
</defs>
</svg>
