<svg width="28" height="30" viewBox="0 0 28 30" fill="none" xmlns="http://www.w3.org/2000/svg">
<path fill-rule="evenodd" clip-rule="evenodd" d="M14.4375 0.90625C13.2701 0.90625 12.1497 1.36782 11.3232 2.19053C10.4965 3.01336 10.0314 4.13011 10.0314 5.2953V14.9994C10.0314 16.1646 10.4965 17.2814 11.3232 18.1042C12.1497 18.9269 13.2701 19.3885 14.4375 19.3885C15.605 19.3885 16.7253 18.9269 17.5519 18.1042C18.3786 17.2814 18.8437 16.1646 18.8437 14.9994V5.2953C18.8437 4.13011 18.3786 3.01336 17.5519 2.19053C16.7253 1.36782 15.605 0.90625 14.4375 0.90625ZM12.3813 3.25368C12.9261 2.71148 13.6657 2.40625 14.4375 2.40625C15.2094 2.40625 15.949 2.71148 16.4938 3.25368C17.0384 3.79575 17.3437 4.53021 17.3437 5.2953V14.9994C17.3437 15.7645 17.0384 16.499 16.4938 17.041C15.949 17.5832 15.2094 17.8885 14.4375 17.8885C13.6657 17.8885 12.9261 17.5832 12.3813 17.041C11.8367 16.499 11.5314 15.7645 11.5314 14.9994V5.2953C11.5314 4.53021 11.8367 3.79575 12.3813 3.25368ZM6.65627 12.5735C6.65627 12.1592 6.32048 11.8235 5.90627 11.8235C5.49205 11.8235 5.15627 12.1592 5.15627 12.5735V14.9995C5.15627 17.4515 6.13495 19.8024 7.87587 21.5352C9.43897 23.091 11.5016 24.0341 13.6876 24.2104V27.5927H9.5626C9.14839 27.5927 8.8126 27.9285 8.8126 28.3427C8.8126 28.7569 9.14839 29.0927 9.5626 29.0927H14.4294C14.4321 29.0927 14.4348 29.0927 14.4376 29.0927C14.4403 29.0927 14.443 29.0927 14.4458 29.0927H19.3124C19.7266 29.0927 20.0624 28.7569 20.0624 28.3427C20.0624 27.9285 19.7266 27.5927 19.3124 27.5927H15.1876V24.2104C17.3734 24.0339 19.4358 23.0909 20.9988 21.5352C22.7397 19.8024 23.7184 17.4515 23.7184 14.9995V12.5735C23.7184 12.1592 23.3826 11.8235 22.9684 11.8235C22.5541 11.8235 22.2184 12.1592 22.2184 12.5735V14.9995C22.2184 17.0514 21.3994 19.02 19.9406 20.472C18.4816 21.9242 16.5021 22.7406 14.4373 22.7406C12.3725 22.7406 10.393 21.9242 8.93403 20.472C7.47519 19.02 6.65627 17.0514 6.65627 14.9995V12.5735Z" fill="url(#paint0_linear_847_2406)"/>
<defs>
<linearGradient id="paint0_linear_847_2406" x1="5.62032" y1="10.7715" x2="23.2543" y2="10.7715" gradientUnits="userSpaceOnUse">
<stop stop-color="#E50913"/>
<stop offset="1" stop-color="#E60B74"/>
</linearGradient>
</defs>
</svg>
