<svg width="30" height="28" viewBox="0 0 30 28" fill="none" xmlns="http://www.w3.org/2000/svg">
<path fill-rule="evenodd" clip-rule="evenodd" d="M14.7812 4.15625C14.7812 3.40625 14.7812 3.40625 14.7811 3.40625H14.7808H14.7795L14.7745 3.40625L14.7552 3.40627L14.6807 3.4064C14.6154 3.40655 14.5197 3.40684 14.3971 3.40743C14.1521 3.4086 13.8 3.41095 13.3707 3.41565C12.5125 3.42504 11.3445 3.44383 10.1069 3.48145C8.87051 3.51903 7.55851 3.57558 6.41418 3.66095C5.29122 3.74473 4.26498 3.86025 3.63847 4.03163L3.63845 4.03155L3.62788 4.03461C2.89933 4.24544 2.24006 4.64864 1.71577 5.20149C1.1916 5.75422 0.820771 6.43704 0.638896 7.18028C0.635005 7.19618 0.631636 7.2122 0.628793 7.22833C0.22062 9.54346 0.0208486 11.8919 0.0319666 14.2443C0.0176655 16.6144 0.217452 18.9808 0.628799 21.3133C0.633011 21.3372 0.638379 21.3609 0.644884 21.3843C0.845434 22.1046 1.2247 22.7616 1.74779 23.2911C2.27098 23.8207 2.92046 24.2049 3.63423 24.4047L3.63847 24.4059C4.26498 24.5773 5.29122 24.6928 6.41418 24.7766C7.55851 24.8619 8.87051 24.9185 10.1069 24.9561C11.3445 24.9937 12.5125 25.0125 13.3707 25.0218C13.8 25.0265 14.1521 25.0289 14.3971 25.0301C14.5197 25.0307 14.6154 25.031 14.6807 25.0311L14.7552 25.0312L14.7745 25.0312L14.7795 25.0312H14.7808H14.7811C14.7812 25.0312 14.7812 25.0312 14.7812 24.2812C14.7812 25.0312 14.7813 25.0312 14.7814 25.0312H14.7818H14.783L14.788 25.0312L14.8073 25.0312L14.8818 25.0311C14.9471 25.031 15.0428 25.0307 15.1654 25.0301C15.4104 25.0289 15.7625 25.0265 16.1918 25.0218C17.05 25.0125 18.218 24.9937 19.4556 24.9561C20.692 24.9185 22.004 24.8619 23.1483 24.7766C24.2713 24.6928 25.2975 24.5773 25.924 24.4059L25.9241 24.4059L25.9346 24.4029C26.6632 24.1921 27.3224 23.7889 27.8467 23.236C28.3709 22.6833 28.7417 22.0005 28.9236 21.2572C28.9275 21.2413 28.9309 21.2253 28.9337 21.2092C29.3388 18.9113 29.5385 16.5806 29.5305 14.2458C29.5449 11.8755 29.3451 9.50896 28.9337 7.17622L28.1951 7.30648L28.9236 7.12821C28.7417 6.38497 28.3709 5.70215 27.8467 5.14942C27.3224 4.59657 26.6632 4.19337 25.9346 3.98254C25.9258 3.97998 25.9168 3.97757 25.9079 3.97534C25.2874 3.82036 24.2667 3.71515 23.1435 3.63864C22.0005 3.56078 20.6896 3.50918 19.4536 3.47488C18.2166 3.44055 17.049 3.4234 16.1911 3.41483C15.7619 3.41054 15.41 3.4084 15.165 3.40733C15.0426 3.40679 14.9469 3.40652 14.8817 3.40639L14.8072 3.40627L14.788 3.40625L14.783 3.40625H14.7817H14.7814C14.7813 3.40625 14.7812 3.40625 14.7812 4.15625ZM14.7812 4.15625L14.7812 4.90625H14.781L14.7799 4.90625L14.7753 4.90625L14.7569 4.90627L14.6841 4.90639C14.62 4.90654 14.5255 4.90683 14.4043 4.90741C14.162 4.90857 13.8129 4.9109 13.3871 4.91556C12.5352 4.92488 11.3774 4.94352 10.1525 4.98075C8.92624 5.01802 7.63883 5.07375 6.52578 5.15679C5.39563 5.24111 4.50895 5.34963 4.03957 5.47703C3.57197 5.61337 3.14563 5.8736 2.80418 6.23366C2.46659 6.58964 2.22392 7.03072 2.10153 7.51421C1.71173 9.73403 1.52107 11.9857 1.53197 14.2412L1.53201 14.2494L1.53196 14.2494C1.51804 16.5177 1.70798 18.7825 2.09937 21.0151C2.23439 21.4789 2.48096 21.8989 2.81492 22.237C3.15622 22.5825 3.57717 22.8307 4.03646 22.9596C4.50503 23.0874 5.39312 23.1962 6.52578 23.2807C7.63883 23.3637 8.92624 23.4195 10.1525 23.4567C11.3774 23.494 12.5352 23.5126 13.3871 23.5219C13.8129 23.5266 14.162 23.5289 14.4043 23.5301C14.5255 23.5307 14.62 23.531 14.6841 23.5311L14.7569 23.5312L14.7753 23.5312L14.7799 23.5312H14.781H14.7812L14.7812 24.2812L14.7813 23.5312H14.7815H14.7826L14.7872 23.5312L14.8056 23.5312L14.8784 23.5311C14.9425 23.531 15.037 23.5307 15.1582 23.5301C15.4005 23.5289 15.7496 23.5266 16.1754 23.5219C17.0273 23.5126 18.1851 23.494 19.41 23.4567C20.6363 23.4195 21.9237 23.3637 23.0367 23.2807C24.1669 23.1964 25.0536 23.0879 25.523 22.9605C25.9906 22.8241 26.4169 22.5639 26.7583 22.2038C27.0959 21.8479 27.3386 21.4068 27.461 20.9233C27.8478 18.7203 28.0384 16.4858 28.0305 14.2474L28.0305 14.2402H28.0305C28.0445 11.9677 27.8538 9.69876 27.461 7.46216C27.3386 6.97866 27.0959 6.53757 26.7583 6.18159C26.4188 5.82357 25.9954 5.56425 25.5309 5.42729C25.0535 5.31036 24.165 5.2117 23.0416 5.13517C21.9272 5.05926 20.6387 5.00835 19.412 4.9743C18.1865 4.94029 17.0283 4.92327 16.1761 4.91476C15.7501 4.9105 15.401 4.90837 15.1585 4.90731C15.0372 4.90678 14.9427 4.90651 14.8786 4.90638L14.8057 4.90627L14.7872 4.90625L14.7827 4.90625L14.7816 4.90625H14.7813L14.7812 4.15625ZM12.5473 8.76629C12.3158 8.62482 12.026 8.6194 11.7894 8.7521C11.5528 8.88481 11.4062 9.13496 11.4062 9.40625V19.0312C11.4062 19.3025 11.5528 19.5527 11.7894 19.6854C12.026 19.8181 12.3158 19.8127 12.5473 19.6712L20.4223 14.8587C20.6453 14.7225 20.7812 14.48 20.7812 14.2188C20.7812 13.9575 20.6453 13.715 20.4223 13.5788L12.5473 8.76629ZM18.593 14.2188L12.9062 17.694V10.7435L18.593 14.2188Z" fill="url(#paint0_linear_847_1875)"/>
<defs>
<linearGradient id="paint0_linear_847_1875" x1="0.76875" y1="10.975" x2="28.7938" y2="10.975" gradientUnits="userSpaceOnUse">
<stop stop-color="#E50913"/>
<stop offset="1" stop-color="#E60B74"/>
</linearGradient>
</defs>
</svg>
