<svg width="15" height="32" viewBox="0 0 15 32" fill="none" xmlns="http://www.w3.org/2000/svg">
<path fill-rule="evenodd" clip-rule="evenodd" d="M7.68791 0.412297C7.57794 0.358662 7.35801 0.358662 7.24804 0.412297C6.91815 0.626837 1.19994 5.02492 3.28928 17.4683L0.485159 21.92C0.430176 22.0272 0.430176 22.0809 0.430176 22.1345V29.5362C0.430176 29.6971 0.485159 29.8043 0.650107 29.858C0.760073 29.9116 0.925021 29.9116 1.03499 29.858L6.25835 26.6399H8.6776L13.901 29.858C14.0109 29.9116 14.1759 29.9652 14.2858 29.858C14.3133 29.858 14.3271 29.8446 14.3408 29.8312C14.3546 29.8177 14.3683 29.8043 14.3958 29.8043C14.4508 29.7507 14.5058 29.6434 14.5058 29.5362V22.1345C14.5058 22.0809 14.5058 21.9736 14.4508 21.92L11.6467 17.4683C13.736 5.02492 8.0178 0.626837 7.68791 0.412297ZM7.46798 1.27046C8.07279 1.80681 9.61231 3.52313 10.492 6.74124H4.38894C5.32365 3.52313 6.86317 1.80681 7.46798 1.27046ZM1.25492 22.2418L3.5642 18.5946C4.00406 20.8473 4.71884 23.3145 5.70853 26.0499L1.25492 28.7853V22.2418ZM13.681 22.2418V28.7853L9.22743 26.0499C10.2171 23.3145 10.9319 20.8473 11.3718 18.5946L13.681 22.2418ZM8.51265 25.8353H6.4233C3.28928 17.3074 3.28928 11.4075 4.22399 7.54577H10.712C11.6467 11.4611 11.5917 17.361 8.51265 25.8353ZM6.36826 28.0344C6.20332 28.0344 6.09335 28.088 6.03837 28.2489L4.49885 31.0379C4.44386 31.1452 4.44386 31.3061 4.49885 31.4134C4.55383 31.5206 4.71878 31.6279 4.82874 31.6279H10.0521C10.1621 31.6279 10.272 31.5743 10.327 31.5206L10.382 31.467C10.437 31.3597 10.437 31.1988 10.382 31.0916L8.89747 28.2489C8.84249 28.1416 8.67754 28.0344 8.56758 28.0344H6.36826ZM9.39232 30.8234H5.48854L6.58819 28.8389H8.29266L9.39232 30.8234ZM7.46802 14.1965C6.42334 14.1965 5.5986 13.3919 5.5986 12.3729C5.5986 11.3538 6.42334 10.5493 7.46802 10.5493C8.51269 10.5493 9.33743 11.3538 9.33743 12.3729C9.33743 12.8556 9.1175 13.3383 8.7876 13.6601C8.45771 13.9819 7.96286 14.1965 7.46802 14.1965ZM7.41303 13.4456C8.01784 13.4456 8.51269 12.9629 8.51269 12.3729C8.51269 11.7829 8.07283 11.3002 7.41303 11.3002C7.08314 11.3002 6.8632 11.4074 6.64327 11.622C6.42334 11.8365 6.31338 12.1047 6.31338 12.3729C6.31338 12.9629 6.80822 13.4456 7.41303 13.4456Z" fill="url(#paint0_linear_532_1718)"/>
<defs>
<linearGradient id="paint0_linear_532_1718" x1="7.46798" y1="0.37207" x2="7.46798" y2="31.6279" gradientUnits="userSpaceOnUse">
<stop stop-color="#767698"/>
<stop offset="0.609375" stop-color="#767698"/>
<stop offset="1" stop-color="#E50913"/>
</linearGradient>
</defs>
</svg>
