<svg width="26" height="25" viewBox="0 0 26 25" fill="none" xmlns="http://www.w3.org/2000/svg">
<path fill-rule="evenodd" clip-rule="evenodd" d="M12.8125 4.0625C12.8125 3.3125 12.8124 3.3125 12.8124 3.3125H12.8121L12.8109 3.3125L12.8066 3.3125L12.7901 3.31252L12.7261 3.31263C12.67 3.31275 12.5879 3.31301 12.4828 3.31351C12.2725 3.31452 11.9705 3.31654 11.6023 3.32056C10.8662 3.32862 9.86436 3.34473 8.80265 3.377C7.74217 3.40924 6.61584 3.45777 5.63275 3.53111C4.67104 3.60286 3.7816 3.70234 3.23328 3.85234L3.23325 3.85226L3.22269 3.85532C2.57973 4.04138 1.99813 4.39715 1.53578 4.88469C1.07353 5.37212 0.746688 5.97407 0.58641 6.62906C0.582519 6.64496 0.57915 6.66098 0.576307 6.6771C0.225365 8.66763 0.0535884 10.6868 0.0631127 12.7093C0.0508513 14.7471 0.222641 16.7817 0.576313 18.7872C0.580525 18.8111 0.585893 18.8347 0.592398 18.8581C0.769139 19.4929 1.10344 20.0721 1.56474 20.5391C2.02615 21.0062 2.59911 21.3452 3.22903 21.5215L3.23328 21.5227C3.7816 21.6727 4.67104 21.7721 5.63275 21.8439C6.61584 21.9172 7.74217 21.9658 8.80265 21.998C9.86436 22.0303 10.8662 22.0464 11.6023 22.0544C11.9705 22.0585 12.2725 22.0605 12.4828 22.0615C12.5879 22.062 12.67 22.0622 12.7261 22.0624L12.7901 22.0625L12.8066 22.0625L12.8109 22.0625H12.8121H12.8124C12.8124 22.0625 12.8125 22.0625 12.8125 21.3125C12.8125 22.0625 12.8126 22.0625 12.8126 22.0625H12.8129H12.8141L12.8184 22.0625L12.8349 22.0625L12.8989 22.0624C12.955 22.0622 13.0371 22.062 13.1422 22.0615C13.3525 22.0605 13.6545 22.0585 14.0227 22.0544C14.7588 22.0464 15.7606 22.0303 16.8224 21.998C17.8828 21.9658 19.0092 21.9172 19.9923 21.8439C20.954 21.7721 21.8434 21.6727 22.3917 21.5227L22.3918 21.5227L22.4023 21.5197C23.0453 21.3336 23.6269 20.9779 24.0892 20.4903C24.5515 20.0029 24.8783 19.4009 25.0386 18.7459C25.0425 18.73 25.0459 18.714 25.0487 18.6979C25.397 16.7222 25.5687 14.7182 25.5619 12.7108C25.5742 10.6729 25.4024 8.63813 25.0487 6.63244L24.3101 6.76269L25.0386 6.58443C24.8783 5.92944 24.5515 5.32749 24.0892 4.84006C23.6269 4.35252 23.0453 3.99675 22.4023 3.81069C22.3934 3.80812 22.3845 3.80572 22.3756 3.80348C21.8333 3.66803 20.9494 3.57746 19.9874 3.51194C19.0057 3.44506 17.8804 3.40079 16.8204 3.37137C15.7592 3.34192 14.7578 3.32721 14.022 3.31986C13.6539 3.31618 13.352 3.31434 13.1419 3.31342C13.0369 3.31296 12.9548 3.31273 12.8988 3.31262L12.8348 3.31251L12.8183 3.3125L12.8141 3.3125L12.8129 3.3125H12.8126C12.8126 3.3125 12.8125 3.3125 12.8125 4.0625ZM12.8125 4.0625L12.8125 4.8125H12.8123L12.8113 4.8125L12.8075 4.8125L12.7917 4.81252L12.7295 4.81262C12.6746 4.81275 12.5937 4.813 12.49 4.81349C12.2824 4.81449 11.9835 4.81648 11.6187 4.82047C10.889 4.82846 9.89731 4.84442 8.84822 4.87631C7.7979 4.90824 6.69616 4.95594 5.74435 5.02695C4.77557 5.09923 4.02568 5.19171 3.63438 5.29773C3.25236 5.40931 2.9037 5.62211 2.62419 5.91686C2.34846 6.20761 2.14976 6.56791 2.04901 6.96324C1.71646 8.85837 1.55381 10.7807 1.56311 12.7062L1.56315 12.7144H1.56311C1.55123 14.6503 1.71316 16.5832 2.04683 18.4886C2.15798 18.867 2.3596 19.2093 2.63187 19.485C2.91138 19.7679 3.25582 19.971 3.63127 20.0764C4.0217 20.1828 4.773 20.2756 5.74435 20.348C6.69616 20.4191 7.7979 20.4668 8.84822 20.4987C9.89731 20.5306 10.889 20.5465 11.6187 20.5545C11.9835 20.5585 12.2824 20.5605 12.49 20.5615C12.5937 20.562 12.6746 20.5623 12.7295 20.5624L12.7917 20.5625L12.8075 20.5625L12.8113 20.5625H12.8123H12.8125L12.8125 21.3125L12.8125 20.5625H12.8127H12.8137L12.8175 20.5625L12.8333 20.5625L12.8955 20.5624C12.9504 20.5623 13.0313 20.562 13.135 20.5615C13.3426 20.5605 13.6415 20.5585 14.0063 20.5545C14.736 20.5465 15.7277 20.5306 16.7768 20.4987C17.8271 20.4668 18.9288 20.4191 19.8807 20.348C20.8494 20.2758 21.5993 20.1833 21.9906 20.0773C22.3726 19.9657 22.7213 19.7529 23.0008 19.4581C23.2765 19.1674 23.4752 18.8071 23.576 18.4118C23.906 16.531 24.0686 14.6234 24.0619 12.7125L24.0619 12.7052H24.0619C24.0738 10.7651 23.9111 8.82809 23.576 6.91862C23.4753 6.52329 23.2765 6.16298 23.0008 5.87223C22.7232 5.57952 22.3775 5.36762 21.9985 5.25543C21.5991 5.15799 20.8474 5.074 19.8855 5.00847C18.9323 4.94354 17.8295 4.89995 16.7788 4.87079C15.7291 4.84166 14.737 4.82708 14.007 4.81978C13.6421 4.81614 13.343 4.81432 13.1354 4.81341C13.0315 4.81295 12.9506 4.81273 12.8957 4.81261L12.8333 4.81251L12.8176 4.8125L12.8137 4.8125L12.8128 4.8125H12.8125L12.8125 4.0625ZM10.9536 7.92254C10.7221 7.78107 10.4323 7.77565 10.1956 7.90835C9.95901 8.04106 9.8125 8.29121 9.8125 8.5625V16.8125C9.8125 17.0838 9.95901 17.3339 10.1956 17.4666C10.4323 17.5994 10.7221 17.5939 10.9536 17.4525L17.7036 13.3275C17.9265 13.1912 18.0625 12.9488 18.0625 12.6875C18.0625 12.4262 17.9265 12.1838 17.7036 12.0475L10.9536 7.92254ZM15.8742 12.6875L11.3125 15.4752V9.89979L15.8742 12.6875Z" fill="url(#paint0_linear_18_455)"/>
<defs>
<linearGradient id="paint0_linear_18_455" x1="0.0625001" y1="12.6875" x2="25.5625" y2="12.6875" gradientUnits="userSpaceOnUse">
<stop stop-color="#E50913"/>
<stop offset="1" stop-color="#E50B74"/>
</linearGradient>
</defs>
</svg>
