<svg width="24" height="25" viewBox="0 0 24 25" fill="none" xmlns="http://www.w3.org/2000/svg">
<path fill-rule="evenodd" clip-rule="evenodd" d="M12.3751 0.312424C11.3461 0.312424 10.3586 0.719218 9.63001 1.44444C8.90126 2.16978 8.49121 3.1543 8.49121 4.18161V12.4994C8.49121 13.5267 8.90126 14.5113 9.63001 15.2366C10.3586 15.9618 11.3461 16.3686 12.3751 16.3686C13.404 16.3686 14.3915 15.9618 15.1201 15.2366C15.8489 14.5113 16.2589 13.5267 16.2589 12.4994V4.18161C16.2589 3.1543 15.8489 2.16978 15.1201 1.44444C14.3915 0.719218 13.404 0.312424 12.3751 0.312424ZM10.6882 2.50758C11.135 2.06288 11.7417 1.81242 12.3751 1.81242C13.0084 1.81242 13.6152 2.06288 14.0619 2.50758C14.5086 2.95217 14.7589 3.5544 14.7589 4.18161V12.4994C14.7589 13.1266 14.5086 13.7289 14.0619 14.1735C13.6152 14.6182 13.0084 14.8686 12.3751 14.8686C11.7417 14.8686 11.135 14.6182 10.6882 14.1735C10.2415 13.7289 9.99121 13.1266 9.99121 12.4994V4.18161C9.99121 3.5544 10.2415 2.95217 10.6882 2.50758ZM5.81253 10.42C5.81253 10.0058 5.47674 9.67003 5.06253 9.67003C4.64832 9.67003 4.31253 10.0058 4.31253 10.42V12.4995C4.31253 14.6298 5.16281 16.6722 6.67518 18.1774C8.00955 19.5056 9.76285 20.3197 11.6251 20.4928V23.1865H8.19654C7.78232 23.1865 7.44654 23.5223 7.44654 23.9365C7.44654 24.3507 7.78232 24.6865 8.19654 24.6865H12.3674C12.37 24.6865 12.3725 24.6865 12.3751 24.6865C12.3776 24.6865 12.3802 24.6865 12.3827 24.6865H16.5535C16.9677 24.6865 17.3035 24.3507 17.3035 23.9365C17.3035 23.5223 16.9677 23.1865 16.5535 23.1865H13.1251V20.4928C14.9871 20.3195 16.7403 19.5055 18.0745 18.1774C19.5869 16.6722 20.4372 14.6298 20.4372 12.4995V10.42C20.4372 10.0058 20.1014 9.67003 19.6872 9.67003C19.273 9.67003 18.9372 10.0058 18.9372 10.42V12.4995C18.9372 14.2297 18.2466 15.8898 17.0164 17.1143C15.786 18.3389 14.1164 19.0276 12.3749 19.0276C10.6333 19.0276 8.96375 18.3389 7.73334 17.1143C6.50306 15.8898 5.81253 14.2297 5.81253 12.4995V10.42Z" fill="url(#paint0_linear_18_450)"/>
<defs>
<linearGradient id="paint0_linear_18_450" x1="4.71565" y1="8.84337" x2="20.0341" y2="8.84337" gradientUnits="userSpaceOnUse">
<stop stop-color="#E50913"/>
<stop offset="1" stop-color="#E60B74"/>
</linearGradient>
</defs>
</svg>
