<svg width="23" height="23" viewBox="0 0 23 23" fill="none" xmlns="http://www.w3.org/2000/svg">
<path fill-rule="evenodd" clip-rule="evenodd" d="M18.4798 2.85092L3.03343 8.25714L9.71993 11.2289L18.4798 2.85092ZM10.9711 12.1079L14.2406 19.4643L19.7561 3.70584L10.9711 12.1079ZM22.1859 1.30419L15.0315 21.7454C14.9299 22.0356 14.6614 22.2345 14.3541 22.247C14.0469 22.2595 13.7631 22.0832 13.6382 21.8022L9.65585 12.8419L0.695522 8.85954C0.414512 8.73465 0.238214 8.45087 0.250749 8.14361C0.263285 7.83635 0.462113 7.56788 0.752363 7.46629L21.25 0.292127C21.3354 0.262212 21.4239 0.248517 21.5114 0.250127C21.7051 0.253055 21.8976 0.330579 22.0421 0.481657C22.2586 0.707984 22.3053 1.03458 22.1859 1.30419Z" fill="#767698"/>
</svg>
