<svg width="30" height="28" viewBox="0 0 30 28" fill="none" xmlns="http://www.w3.org/2000/svg">
<path fill-rule="evenodd" clip-rule="evenodd" d="M19.645 2.55797C19.2454 2.44878 18.833 2.68417 18.7238 3.08373C18.6146 3.4833 18.85 3.89572 19.2496 4.00491C20.0964 4.23632 20.8568 4.76468 21.405 5.51836C21.9536 6.27278 22.2555 7.20704 22.2555 8.17397C22.2555 9.1409 21.9536 10.0752 21.405 10.8296C20.8568 11.5833 20.0964 12.1116 19.2496 12.343C18.85 12.4522 18.6146 12.8646 18.7238 13.2642C18.833 13.6638 19.2454 13.8992 19.645 13.79C20.8339 13.4651 21.8777 12.7298 22.6181 11.7118C23.3579 10.6946 23.7555 9.44983 23.7555 8.17397C23.7555 6.89811 23.3579 5.65337 22.6181 4.6361C21.8777 3.6181 20.8339 2.88286 19.645 2.55797ZM7.74355 8.17397C7.74355 5.88611 9.59823 4.03144 11.8861 4.03144C14.1739 4.03144 16.0286 5.88611 16.0286 8.17397C16.0286 10.4618 14.1739 12.3165 11.8861 12.3165C9.59823 12.3165 7.74355 10.4618 7.74355 8.17397ZM11.8861 2.53144C8.7698 2.53144 6.24355 5.05768 6.24355 8.17397C6.24355 11.2903 8.7698 13.8165 11.8861 13.8165C15.0024 13.8165 17.5286 11.2903 17.5286 8.17397C17.5286 5.05768 15.0024 2.53144 11.8861 2.53144ZM6.54879 16.7642C5.05962 16.7642 3.62697 17.3376 2.56714 18.3654C1.50653 19.3938 0.906265 20.7937 0.906265 22.2585V24.6306C0.906265 25.0448 1.24205 25.3806 1.65627 25.3806C2.07048 25.3806 2.40627 25.0448 2.40627 24.6306V22.2585C2.40627 21.2067 2.83692 20.1932 3.61136 19.4422C4.38659 18.6905 5.44281 18.2642 6.54879 18.2642H16.3339C17.4398 18.2642 18.4961 18.6905 19.2713 19.4422C20.0457 20.1932 20.4764 21.2067 20.4764 22.2585V24.6306C20.4764 25.0448 20.8122 25.3806 21.2264 25.3806C21.6406 25.3806 21.9764 25.0448 21.9764 24.6306V22.2585C21.9764 20.7937 21.3761 19.3938 20.3155 18.3654C19.2557 17.3376 17.823 16.7642 16.3339 16.7642H6.54879ZM24.0594 17.3228C24.1651 16.9223 24.5755 16.6833 24.976 16.789C26.1579 17.101 27.2018 17.8045 27.9457 18.7853C28.6894 19.7659 29.0919 20.9689 29.0928 22.2054V22.206V24.6306C29.0928 25.0448 28.757 25.3806 28.3428 25.3806C27.9286 25.3806 27.5928 25.0448 27.5928 24.6306V22.2065C27.5921 21.2941 27.2949 20.4095 26.7506 19.6917C26.2064 18.9742 25.4469 18.4647 24.5932 18.2394C24.1927 18.1337 23.9537 17.7233 24.0594 17.3228Z" fill="url(#paint0_linear_847_2415)"/>
<defs>
<linearGradient id="paint0_linear_847_2415" x1="1.61093" y1="10.5285" x2="28.3881" y2="10.5285" gradientUnits="userSpaceOnUse">
<stop stop-color="#E50913"/>
<stop offset="1" stop-color="#E60B74"/>
</linearGradient>
</defs>
</svg>
