<svg width="28" height="28" viewBox="0 0 28 28" fill="none" xmlns="http://www.w3.org/2000/svg">
<path fill-rule="evenodd" clip-rule="evenodd" d="M5.59375 1.65625H6.34375H22.0938H22.8438V2.40625C22.8438 3.47637 22.8174 4.71285 22.736 6.03125H26.0312H26.7812V6.78125C26.7812 9.11883 25.971 11.8768 24.6494 14.0602C23.4607 16.0242 21.7331 17.7145 19.6352 17.9915C18.4973 19.7209 16.9437 21.0248 14.823 21.4433C14.8228 21.4539 14.8225 21.4645 14.8223 21.475C14.8118 21.9886 14.8039 22.3768 14.875 22.75L14.8952 22.8572C14.9804 23.3129 15.0537 23.7043 15.3563 23.9313C15.7046 24.1925 16.2722 24.3982 17.2321 24.5315C18.1853 24.6639 19.4731 24.7188 21.2188 24.7188C21.4604 24.7188 21.6562 24.9146 21.6562 25.1563V26.0313C21.6562 26.2729 21.4604 26.4688 21.2188 26.4688H7.21875C6.97713 26.4688 6.78125 26.2729 6.78125 26.0313V25.1563C6.78125 24.9146 6.97713 24.7188 7.21875 24.7188C8.96439 24.7188 10.2522 24.6639 11.2054 24.5315C12.1653 24.3982 12.7329 24.1925 13.0812 23.9313C13.3838 23.7043 13.4571 23.3129 13.5423 22.8572L13.5625 22.75C13.6251 22.4215 13.6085 22.0716 13.5878 21.6369C13.5847 21.572 13.5816 21.5051 13.5786 21.4361C11.4762 21.01 9.93376 19.7111 8.8023 17.9915C6.70442 17.7145 4.97679 16.0242 3.78806 14.0602C2.46649 11.8768 1.65625 9.11883 1.65625 6.78125V6.03125H2.40625H5.7015C5.62006 4.71285 5.59375 3.47637 5.59375 2.40625V1.65625ZM21.5008 13.7741C22.0898 11.7715 22.4302 9.59392 22.6208 7.53125H25.2506C25.1017 9.40821 24.4172 11.547 23.3662 13.2835C22.5771 14.5872 21.645 15.5677 20.6592 16.0947C20.989 15.3513 21.2668 14.5695 21.5008 13.7741ZM6.93673 13.7741C7.17066 14.5695 7.44847 15.3513 7.77833 16.0947C6.79251 15.5677 5.8604 14.5872 5.07131 13.2835C4.02028 11.547 3.33576 9.40821 3.18686 7.53125H5.81666C6.00731 9.59392 6.34771 11.7715 6.93673 13.7741ZM7.09824 3.15625C7.13404 6.12827 7.39767 10.0253 8.37577 13.3509C9.44024 16.9701 11.248 19.6041 14.2187 20.0246C17.1894 19.6041 18.9973 16.9701 20.0617 13.3509C21.0398 10.0253 21.3035 6.12827 21.3393 3.15625H7.09824Z" fill="url(#paint0_linear_847_1778)"/>
<defs>
<linearGradient id="paint0_linear_847_1778" x1="2.28438" y1="10.3406" x2="26.1531" y2="10.3406" gradientUnits="userSpaceOnUse">
<stop stop-color="#E50913"/>
<stop offset="1" stop-color="#E60B74"/>
</linearGradient>
</defs>
</svg>
